# Blender v2.92.0 OBJ File: ''
# www.blender.org
mtllib AmbientSensorBottom.mtl
o AmbientSensorBottom
v -50.080223 -23.548779 -5.977621
v -55.080223 -23.548779 -5.977621
v -55.080223 -25.298779 -5.977621
v -0.580223 -25.298779 -5.977621
v -0.580223 -23.548779 -5.977621
v -5.880226 -23.548779 -5.977621
v -5.880226 -20.298779 -5.977621
v -50.080223 -20.298779 -5.977621
v -35.180222 -20.298779 23.622379
v -35.180222 -20.298779 21.622379
v -55.080223 -20.298779 23.622379
v -50.080223 -20.298779 21.622379
v -56.698257 -20.298779 -7.153193
v -56.982338 -20.298779 -6.595655
v -55.080223 -20.298779 -4.977621
v -50.080223 -20.298779 20.622377
v -55.080223 -20.298779 20.622377
v -55.698257 -20.298779 23.524490
v -56.698257 -20.298779 22.797951
v -56.255795 -20.298779 23.240414
v -57.080223 -20.298779 -5.977621
v -57.080223 -20.298779 21.622379
v -56.982338 -20.298779 22.240412
v -55.080223 -20.298779 -7.977621
v -55.698257 -20.298779 -7.879736
v -56.255795 -20.298779 -7.595655
v -0.421844 -20.298779 -4.977621
v -0.678108 -20.298779 -6.595655
v -5.880226 -20.298779 -4.977621
v -0.962189 -20.298779 -7.153193
v -50.080223 -20.298779 -4.977621
v -2.580223 -20.298779 -7.977621
v -1.962193 -20.298779 -7.879736
v -1.404652 -20.298779 -7.595655
v -55.080223 -25.298779 20.622377
v -55.080223 -25.298779 21.622379
v -0.421841 -25.298779 20.622377
v -0.580223 -25.298779 21.622379
v -55.080223 -23.548779 20.622377
v -55.080223 -23.548779 21.622379
v -55.080223 -23.548779 -4.977621
v -55.080223 -25.298779 -4.977621
v -55.080223 -27.298779 20.622377
v -55.080223 -27.298779 -4.977621
v -5.880226 -23.548779 21.622379
v -0.580223 -23.548779 21.622379
v -50.080223 -23.548779 21.622379
v -35.180222 -21.798779 21.622379
v -19.487263 -23.039394 21.622379
v -19.239609 -22.791737 21.622379
v -19.065441 -22.487871 21.622379
v -35.183525 -22.149002 21.622379
v -35.095001 -22.487871 21.622379
v -18.980221 -20.298779 21.622379
v -5.880226 -20.298779 21.622379
v -18.980221 -21.798779 21.622379
v -18.976921 -22.149002 21.622379
v -34.920837 -22.791737 21.622379
v -34.673180 -23.039394 21.622379
v -34.369316 -23.213558 21.622379
v -34.030449 -23.302080 21.622379
v -33.680222 -23.298779 21.622379
v -20.480221 -23.298779 21.622379
v -20.130001 -23.302080 21.622379
v -19.791134 -23.213558 21.622379
v -0.962189 -29.298779 22.797951
v -0.678108 -29.298779 22.240412
v -0.962189 -20.298779 22.797951
v -0.678108 -20.298779 22.240412
v -1.404652 -29.298779 23.240414
v -1.404652 -20.298779 23.240414
v -1.962193 -29.298779 23.524490
v -1.962193 -20.298779 23.524490
v -2.580223 -29.298779 23.622379
v -2.580223 -20.298779 23.622379
v -35.180222 -21.798779 23.622379
v -18.980221 -20.298779 23.622379
v -18.980221 -21.798779 23.622379
v -18.976921 -22.149002 23.622379
v -19.065441 -22.487871 23.622379
v -19.239609 -22.791737 23.622379
v -55.080223 -29.298779 23.622379
v -35.095001 -22.487871 23.622379
v -35.183525 -22.149002 23.622379
v -34.369316 -23.213558 23.622379
v -34.673180 -23.039394 23.622379
v -34.920837 -22.791737 23.622379
v -19.487263 -23.039394 23.622379
v -19.791134 -23.213558 23.622379
v -20.130001 -23.302080 23.622379
v -20.480221 -23.298779 23.622379
v -33.680222 -23.298779 23.622379
v -34.030449 -23.302080 23.622379
v -55.698257 -29.298779 23.524490
v -56.255795 -29.298779 23.240414
v -56.698257 -29.298779 22.797951
v -56.982338 -29.298779 22.240412
v -57.080223 -29.298779 21.622379
v -57.080223 -29.298779 -5.977621
v -56.982338 -29.298779 -6.595655
v -56.698257 -29.298779 -7.153193
v -56.255795 -29.298779 -7.595655
v -55.698257 -29.298779 -7.879736
v -55.080223 -29.298779 -7.977621
v -2.580223 -29.298779 -7.977621
v -1.962193 -29.298779 -7.879736
v -1.404652 -29.298779 -7.595655
v -0.962189 -29.298779 -7.153193
v -0.678108 -29.298779 -6.595655
v -0.421844 -25.298779 -4.977621
v -0.421844 -27.298779 -4.977621
v -0.421844 -23.548779 -4.977621
v 1.605453 -29.298779 7.822399
v 1.605453 -27.298779 7.822399
v -0.421841 -27.298779 20.622377
v -0.580223 -20.298779 21.622379
v -0.580223 -20.298779 20.622377
v -5.880226 -20.298779 20.622377
v -50.080223 -23.548779 -4.977621
v -50.080223 -23.548779 20.622377
v -5.880226 -23.548779 -4.977621
v -0.580223 -23.548779 20.622377
v -5.880226 -23.548779 20.622377
vn 0.0000 0.0000 1.0000
vn 0.0000 1.0000 0.0000
vn 1.0000 0.0000 0.0000
vn 0.0000 0.0000 -1.0000
vn 0.8910 0.0000 0.4540
vn 0.7071 0.0000 0.7071
vn 0.4540 0.0000 0.8910
vn 0.1564 0.0000 0.9877
vn -0.1564 0.0000 0.9877
vn -0.4540 0.0000 0.8910
vn -0.7071 0.0000 0.7071
vn -0.8910 0.0000 0.4540
vn -0.9877 0.0000 0.1564
vn -1.0000 0.0000 0.0000
vn -0.9877 0.0000 -0.1564
vn -0.8910 0.0000 -0.4540
vn -0.7071 0.0000 -0.7071
vn -0.4540 0.0000 -0.8910
vn -0.1564 0.0000 -0.9877
vn 0.1564 0.0000 -0.9877
vn 0.4540 0.0000 -0.8910
vn 0.7071 0.0000 -0.7071
vn 0.8910 0.0000 -0.4540
vn 0.9877 0.0000 -0.1564
vn 0.9877 0.0000 0.1564
vn 0.0000 -1.0000 0.0000
vn 0.0000 -1.0000 0.0001
vn 1.0000 -0.0094 0.0000
vn 0.9675 0.2528 0.0000
vn 0.8676 0.4973 0.0000
vn 0.7071 0.7071 0.0000
vn 0.4973 0.8676 0.0000
vn 0.2527 0.9675 0.0000
vn -0.0094 1.0000 0.0000
vn 0.0094 1.0000 0.0000
vn -0.2527 0.9675 0.0000
vn -0.4973 0.8676 0.0000
vn -0.7071 0.7071 0.0000
vn -0.8676 0.4973 0.0000
vn -0.9675 0.2527 0.0000
vn -1.0000 -0.0094 0.0000
usemtl None
s off
f 1//1 2//1 3//1
f 4//1 5//1 6//1
f 7//1 8//1 6//1
f 6//1 8//1 1//1
f 6//1 1//1 4//1
f 4//1 1//1 3//1
f 9//2 10//2 11//2
f 11//2 10//2 12//2
f 13//2 14//2 15//2
f 12//2 16//2 11//2
f 11//2 16//2 17//2
f 11//2 17//2 18//2
f 18//2 17//2 19//2
f 18//2 19//2 20//2
f 14//2 21//2 15//2
f 15//2 21//2 22//2
f 15//2 22//2 17//2
f 17//2 22//2 23//2
f 17//2 23//2 19//2
f 24//2 25//2 15//2
f 15//2 25//2 26//2
f 15//2 26//2 13//2
f 27//2 28//2 29//2
f 29//2 28//2 30//2
f 15//2 31//2 24//2
f 24//2 31//2 8//2
f 24//2 8//2 32//2
f 32//2 8//2 7//2
f 32//2 7//2 33//2
f 33//2 7//2 29//2
f 33//2 29//2 34//2
f 34//2 29//2 30//2
f 35//2 36//2 37//2
f 37//2 36//2 38//2
f 15//3 17//3 39//3
f 40//3 36//3 39//3
f 39//3 36//3 35//3
f 39//3 35//3 15//3
f 15//3 35//3 41//3
f 3//3 2//3 42//3
f 42//3 2//3 41//3
f 41//3 35//3 42//3
f 42//3 35//3 43//3
f 42//3 43//3 44//3
f 45//4 46//4 38//4
f 36//4 40//4 47//4
f 12//4 10//4 48//4
f 49//4 50//4 45//4
f 45//4 50//4 51//4
f 12//4 48//4 47//4
f 47//4 48//4 52//4
f 47//4 52//4 53//4
f 54//4 55//4 56//4
f 56//4 55//4 45//4
f 56//4 45//4 57//4
f 57//4 45//4 51//4
f 53//4 58//4 47//4
f 47//4 58//4 59//4
f 47//4 59//4 60//4
f 60//4 61//4 47//4
f 47//4 61//4 45//4
f 47//4 45//4 36//4
f 36//4 45//4 38//4
f 62//4 63//4 61//4
f 61//4 63//4 64//4
f 61//4 64//4 45//4
f 45//4 64//4 65//4
f 45//4 65//4 49//4
f 66//5 67//5 68//5
f 68//5 67//5 69//5
f 70//6 66//6 71//6
f 71//6 66//6 68//6
f 72//7 70//7 73//7
f 73//7 70//7 71//7
f 74//8 72//8 75//8
f 75//8 72//8 73//8
f 76//1 9//1 11//1
f 77//1 78//1 75//1
f 75//1 78//1 79//1
f 75//1 79//1 74//1
f 74//1 79//1 80//1
f 74//1 80//1 81//1
f 82//1 83//1 11//1
f 11//1 83//1 84//1
f 11//1 84//1 76//1
f 85//1 86//1 82//1
f 82//1 86//1 87//1
f 82//1 87//1 83//1
f 81//1 88//1 74//1
f 74//1 88//1 89//1
f 74//1 89//1 90//1
f 90//1 91//1 74//1
f 74//1 91//1 92//1
f 74//1 92//1 82//1
f 82//1 92//1 93//1
f 82//1 93//1 85//1
f 94//9 82//9 18//9
f 18//9 82//9 11//9
f 95//10 94//10 20//10
f 20//10 94//10 18//10
f 96//11 95//11 19//11
f 19//11 95//11 20//11
f 97//12 96//12 23//12
f 23//12 96//12 19//12
f 98//13 97//13 22//13
f 22//13 97//13 23//13
f 99//14 98//14 21//14
f 21//14 98//14 22//14
f 100//15 99//15 14//15
f 14//15 99//15 21//15
f 101//16 100//16 13//16
f 13//16 100//16 14//16
f 102//17 101//17 26//17
f 26//17 101//17 13//17
f 103//18 102//18 25//18
f 25//18 102//18 26//18
f 104//19 103//19 24//19
f 24//19 103//19 25//19
f 105//4 104//4 32//4
f 32//4 104//4 24//4
f 106//20 105//20 33//20
f 33//20 105//20 32//20
f 107//21 106//21 34//21
f 34//21 106//21 33//21
f 108//22 107//22 30//22
f 30//22 107//22 34//22
f 109//23 108//23 28//23
f 28//23 108//23 30//23
f 4//24 110//24 111//24
f 28//24 27//24 112//24
f 112//24 5//24 28//24
f 28//24 5//24 4//24
f 28//24 4//24 109//24
f 109//24 4//24 111//24
f 109//24 111//24 113//24
f 113//24 111//24 114//24
f 113//25 114//25 67//25
f 67//25 114//25 115//25
f 115//25 37//25 67//25
f 67//25 37//25 38//25
f 67//25 38//25 69//25
f 69//25 38//25 46//25
f 69//25 46//25 116//25
f 98//26 99//26 104//26
f 104//26 99//26 100//26
f 100//26 101//26 104//26
f 104//26 101//26 102//26
f 104//26 102//26 103//26
f 108//26 109//26 113//26
f 94//26 95//26 96//26
f 106//27 107//27 105//27
f 105//26 107//26 108//26
f 108//26 113//26 105//26
f 105//26 113//26 67//26
f 105//26 67//26 66//26
f 96//26 97//26 94//26
f 94//26 97//26 98//26
f 94//26 98//26 82//26
f 82//26 98//26 104//26
f 82//26 104//26 74//26
f 74//26 104//26 105//26
f 74//26 105//26 72//26
f 72//26 105//26 66//26
f 72//26 66//26 70//26
f 54//2 77//2 55//2
f 55//2 77//2 75//2
f 55//2 75//2 73//2
f 117//2 118//2 116//2
f 116//2 118//2 55//2
f 69//2 116//2 68//2
f 68//2 116//2 55//2
f 68//2 55//2 71//2
f 71//2 55//2 73//2
f 4//2 3//2 110//2
f 110//2 3//2 42//2
f 31//3 119//3 8//3
f 8//3 119//3 1//3
f 119//26 41//26 1//26
f 1//26 41//26 2//26
f 15//1 41//1 31//1
f 31//1 41//1 119//1
f 120//3 16//3 47//3
f 47//3 16//3 12//3
f 39//26 120//26 40//26
f 40//26 120//26 47//26
f 120//4 39//4 16//4
f 16//4 39//4 17//4
f 43//4 35//4 115//4
f 115//4 35//4 37//4
f 42//1 44//1 110//1
f 110//1 44//1 111//1
f 111//2 44//2 114//2
f 114//2 44//2 43//2
f 114//2 43//2 115//2
f 9//3 76//3 10//3
f 10//3 76//3 48//3
f 76//28 84//28 48//28
f 48//28 84//28 52//28
f 84//29 83//29 52//29
f 52//29 83//29 53//29
f 83//30 87//30 53//30
f 53//30 87//30 58//30
f 87//31 86//31 58//31
f 58//31 86//31 59//31
f 86//32 85//32 59//32
f 59//32 85//32 60//32
f 85//33 93//33 60//33
f 60//33 93//33 61//33
f 93//34 92//34 61//34
f 61//34 92//34 62//34
f 92//2 91//2 62//2
f 62//2 91//2 63//2
f 91//35 90//35 63//35
f 63//35 90//35 64//35
f 90//36 89//36 64//36
f 64//36 89//36 65//36
f 89//37 88//37 65//37
f 65//37 88//37 49//37
f 88//38 81//38 49//38
f 49//38 81//38 50//38
f 81//39 80//39 50//39
f 50//39 80//39 51//39
f 80//40 79//40 51//40
f 51//40 79//40 57//40
f 79//41 78//41 57//41
f 57//41 78//41 56//41
f 78//14 77//14 56//14
f 56//14 77//14 54//14
f 121//14 29//14 6//14
f 6//14 29//14 7//14
f 112//26 121//26 5//26
f 5//26 121//26 6//26
f 121//1 112//1 29//1
f 29//1 112//1 27//1
f 46//3 122//3 116//3
f 116//3 122//3 117//3
f 123//14 45//14 118//14
f 118//14 45//14 55//14
f 122//4 123//4 117//4
f 117//4 123//4 118//4
f 45//26 123//26 46//26
f 46//26 123//26 122//26
