# Blender v2.92.0 OBJ File: ''
# www.blender.org
mtllib HeadplateHolderSweptT.mtl
o HEADPOSTHOLDER-SWEPT-T
v 13.324871 -2.513554 -10.205020
v 2.891705 -2.513554 -12.821922
v 13.666354 -2.513554 -8.521694
v 17.835773 -2.513554 -9.314853
v 26.678648 -2.513554 -1.659705
v 14.431149 -2.513554 -11.754298
v 7.654205 -2.513554 -20.453537
v 17.678303 -2.513554 -10.645804
v 21.572893 -2.513554 -11.170925
v 2.891705 -2.513554 -20.453537
v 15.232912 -2.513554 -7.443762
v 18.152355 -2.513554 -2.664845
v 17.060547 -2.513554 -8.002999
v 25.212971 -2.513554 0.537985
v 16.521549 -2.513554 -11.903182
v 19.285351 -2.513554 -3.273876
v 21.572893 -1.243554 -11.170925
v 26.678648 -1.243554 -1.659705
v 7.654205 -1.243554 -20.453537
v 2.891705 -1.243554 -20.453537
v 2.891705 -1.243554 -12.821922
v 18.162369 -1.243553 -2.663895
v 19.227976 -1.243553 -3.276916
v 25.212971 -1.243554 0.537985
v 13.304765 -1.243553 -10.087757
v 14.329839 -1.243553 -11.691919
v 16.602594 -1.243553 -11.903858
v 17.835773 -1.243553 -10.197108
v 17.614794 -1.243553 -8.689422
v 16.495708 -1.243553 -7.655215
v 14.975307 -1.243553 -7.553597
v 13.728546 -1.243553 -8.429679
vn 0.0000 -1.0000 0.0000
vn 0.8811 0.0000 -0.4730
vn 0.5548 0.0000 -0.8320
vn 0.0000 0.0000 -1.0000
vn -1.0000 0.0000 0.0000
vn -0.5538 0.0037 0.8326
vn -0.5541 0.0000 0.8325
vn 0.4733 0.0235 0.8806
vn 0.4986 -0.0046 0.8668
vn -0.5374 -0.0223 0.8431
vn -0.5409 0.0000 0.8411
vn 0.8320 0.0000 0.5548
vn 0.8421 -0.0364 0.5381
vn 0.8133 0.0364 0.5807
vn 0.0928 -0.0415 0.9948
vn 0.0710 -0.0040 0.9975
vn -0.7351 0.0473 0.6763
vn -0.8060 -0.1058 0.5824
vn -0.9898 0.0814 0.1171
vn -0.9844 -0.1002 -0.1443
vn -0.8566 0.1002 -0.5062
vn -0.6753 -0.1002 -0.7307
vn -0.2901 0.1306 -0.9480
vn -0.0664 -0.0993 -0.9928
vn 0.5743 0.0458 -0.8173
vn 0.5666 0.0319 -0.8234
vn 0.9684 -0.0295 -0.2475
vn 0.9795 0.0339 -0.1987
vn -0.0000 1.0000 -0.0000
usemtl None
s off
f 2//1 1//1 3//1
f 4//1 8//1 9//1
f 7//1 6//1 10//1
f 10//1 6//1 1//1
f 10//1 1//1 2//1
f 11//1 12//1 3//1
f 3//1 12//1 2//1
f 5//1 4//1 9//1
f 14//1 13//1 5//1
f 5//1 13//1 4//1
f 9//1 8//1 15//1
f 15//1 6//1 7//1
f 14//1 16//1 13//1
f 9//1 15//1 7//1
f 13//1 16//1 11//1
f 11//1 16//1 12//1
f 17//2 18//2 9//2
f 9//2 18//2 5//2
f 17//3 9//3 19//3
f 19//3 9//3 7//3
f 20//4 19//4 10//4
f 10//4 19//4 7//4
f 21//5 20//5 2//5
f 2//5 20//5 10//5
f 22//6 21//6 12//6
f 12//7 21//7 2//7
f 16//8 23//8 12//8
f 12//9 23//9 22//9
f 23//10 16//10 24//10
f 24//11 16//11 14//11
f 5//12 18//12 14//12
f 14//12 18//12 24//12
f 25//13 1//13 26//13
f 26//14 1//14 6//14
f 26//15 6//15 27//15
f 27//16 6//16 15//16
f 27//17 15//17 8//17
f 27//18 8//18 28//18
f 28//19 8//19 4//19
f 28//20 4//20 29//20
f 29//21 4//21 13//21
f 29//22 13//22 30//22
f 30//23 13//23 11//23
f 30//24 11//24 31//24
f 31//25 11//25 32//25
f 32//26 11//26 3//26
f 32//27 3//27 25//27
f 25//28 3//28 1//28
f 21//29 32//29 25//29
f 21//29 25//29 20//29
f 29//29 18//29 28//29
f 28//29 18//29 17//29
f 22//29 31//29 32//29
f 22//29 32//29 21//29
f 20//29 25//29 26//29
f 20//29 26//29 19//29
f 19//29 26//29 27//29
f 18//29 29//29 24//29
f 24//29 29//29 23//29
f 23//29 29//29 30//29
f 19//29 27//29 17//29
f 17//29 27//29 28//29
f 22//29 30//29 31//29
f 30//29 22//29 23//29
