# Blender v2.92.0 OBJ File: ''
# www.blender.org
mtllib HeadplateHolderMBR.mtl
o HEADPOSTHOLDER-SWEPT-MBR
v 21.551041 -7.733335 -21.337269
v 13.799864 -7.733335 -32.959667
v 21.551041 -9.638335 -21.337269
v 13.799864 -9.638335 -32.959667
v -3.916119 -9.638335 -49.607967
v -3.916119 -10.654335 -49.607967
v -0.535633 -9.638335 -48.752369
v -0.264103 -10.654335 -48.589970
v -0.077499 -9.638335 -48.176163
v -0.232615 -10.654335 -47.440189
v -0.384360 -9.638335 -47.342010
v -4.013214 -9.638335 -46.294018
v -3.916119 -10.654335 -46.406574
v 22.646645 -7.733335 -22.102112
v 22.701597 -9.638332 -22.101933
v 14.856447 -7.733335 -33.664322
v 14.856447 -9.638335 -33.664322
v 23.392750 -12.088892 -14.978267
v 20.879593 -9.639906 -14.870120
v 23.643864 -12.092093 -16.086006
v 21.859188 -9.639749 -17.898563
v 24.779287 -12.092094 -17.102097
v 23.825825 -9.638412 -19.334446
v 26.141251 -9.639749 -19.741230
v 26.491806 -12.094024 -17.138258
v 29.019146 -9.639042 -18.377583
v 27.621941 -12.090989 -16.108011
v 30.304367 -9.638864 -15.888566
v 27.929630 -12.092093 -14.812178
v 29.924381 -9.640070 -12.741550
v 27.190945 -12.094025 -13.266760
v 27.159515 -9.639749 -10.452762
v 25.762209 -12.090989 -12.721449
v 23.975693 -9.639749 -10.510621
v 24.642849 -12.090988 -12.954208
v 21.779139 -9.638952 -12.248681
v 23.662312 -12.092093 -13.855509
v 6.119226 -9.638335 -39.201366
v 7.084112 -9.638335 -39.292824
v 3.707026 -9.638335 -50.382172
v 33.956593 -9.638335 -9.261306
v 35.083294 -9.638335 -10.754132
v 8.045729 -9.638335 -38.765137
v 8.406512 -9.638335 -37.154346
v 32.631451 -9.638335 -8.671754
v 18.502886 -9.638335 -8.709511
v 16.052847 -9.638335 -15.534710
v 7.032437 -9.638335 -36.010059
v 23.964233 -9.638335 -21.398590
v 35.091503 -9.638335 -19.248276
v 33.323559 -9.638335 -21.162563
v 5.710758 -9.638335 -36.414478
v 5.150142 -9.638335 -37.363163
v 5.309946 -9.638335 -38.453468
v 16.184362 -9.638335 -11.205724
v 16.922121 -9.638335 -9.665089
v -3.916119 -9.638335 -50.382172
v 18.718317 -12.813335 -8.671753
v 35.165398 -12.813335 -11.205711
v 34.427635 -12.813335 -9.665083
v 32.846874 -12.813335 -8.709510
v 33.110889 -12.813335 -21.228893
v 35.025177 -12.813335 -19.460939
v 24.102859 -12.813335 -21.387354
v 22.635860 -12.813318 -22.113201
v 3.707026 -12.813335 -50.382172
v -3.916119 -12.813335 -50.382172
v -3.916119 -12.813335 -45.606972
v 16.077717 -12.813335 -15.452595
v 17.177696 -12.813335 -9.409515
v 16.222120 -12.813335 -10.990286
v 23.455494 -12.813387 -15.577578
v 23.528109 -12.813398 -14.075359
v 24.916145 -12.813335 -12.795835
v 26.449936 -12.813335 -12.864784
v 27.637236 -12.813335 -13.808706
v 27.876041 -12.813335 -15.509638
v 27.184334 -12.813335 -16.657574
v 25.994963 -12.813335 -17.248039
v 24.323633 -12.813335 -16.879967
v 8.099778 -12.813335 -38.698196
v 6.886857 -12.813335 -39.349430
v 5.485157 -12.813335 -38.779816
v 5.136569 -12.813335 -37.442326
v 5.650468 -12.813335 -36.467541
v 6.943214 -12.813335 -35.998634
v 8.375515 -12.813335 -37.066616
vn -0.8320 0.0000 0.5548
vn -0.2454 0.0000 0.9694
vn -0.2676 0.0819 0.9600
vn -0.7781 -0.1091 0.6186
vn -0.9851 0.1699 0.0270
vn -0.9332 -0.1062 -0.3433
vn -0.2771 0.0513 -0.9595
vn -0.2693 0.0806 -0.9597
vn 0.5723 0.0166 0.8198
vn 0.5535 0.0000 0.8328
vn -0.5548 0.0000 -0.8320
vn 0.0000 1.0000 0.0000
vn 0.6929 0.7042 0.1550
vn 0.7002 0.6770 0.2265
vn 0.4631 0.7195 0.5175
vn 0.4242 0.6940 0.5817
vn 0.1250 0.6938 0.7092
vn 0.0153 0.7285 0.6848
vn -0.3189 0.6678 0.6726
vn -0.4616 0.7298 0.5043
vn -0.6504 0.6814 0.3358
vn -0.6731 0.7219 0.1604
vn -0.7348 0.6725 -0.0885
vn -0.6080 0.7392 -0.2897
vn -0.4798 0.6585 -0.5797
vn -0.2424 0.7298 -0.6392
vn 0.0134 0.6751 -0.7376
vn 0.1417 0.7180 -0.6815
vn 0.4499 0.6890 -0.5683
vn 0.4777 0.7077 -0.5206
vn 0.6895 0.6845 -0.2369
vn 0.6850 0.7102 -0.1624
vn -0.0001 1.0000 -0.0000
vn -0.0003 1.0000 -0.0002
vn 0.0003 1.0000 0.0004
vn -0.0005 1.0000 0.0002
vn -0.0001 1.0000 -0.0003
vn -0.0005 1.0000 0.0003
vn -0.0002 1.0000 -0.0003
vn 0.0006 1.0000 0.0001
vn -0.0000 1.0000 0.0009
vn -0.0001 1.0000 0.0001
vn 0.0003 1.0000 0.0001
vn 0.0018 1.0000 0.0004
vn 0.0009 1.0000 0.0003
vn -0.0002 1.0000 -0.0001
vn 0.0000 1.0000 -0.0008
vn 0.0000 1.0000 -0.0007
vn -0.0027 0.0117 0.9999
vn 0.0027 -0.0117 0.9999
vn 0.9013 -0.0381 0.4316
vn 0.7975 0.0418 0.6019
vn 0.5171 -0.0321 0.8553
vn 0.4064 0.0167 0.9135
vn 0.9997 0.0257 0.0010
vn 0.9997 -0.0197 -0.0170
vn 0.6782 -0.0301 -0.7343
vn 0.7343 0.0301 -0.6782
vn 0.0252 0.0192 -0.9995
vn 0.0176 -0.0028 -0.9998
vn 0.4434 0.0162 -0.8962
vn 0.4866 -0.0070 -0.8736
vn 0.0733 0.0020 -0.9973
vn 0.8320 0.0000 -0.5548
vn 0.8293 0.0000 -0.5588
vn 0.8294 -0.0005 -0.5587
vn 0.8309 0.0117 -0.5563
vn 0.0000 0.0000 -1.0000
vn -1.0000 0.0000 0.0000
vn -0.9783 -0.0720 -0.1943
vn -0.8334 0.0078 0.5526
vn -0.8340 0.0922 0.5440
vn -0.9994 -0.0097 0.0323
vn -0.9995 -0.0070 0.0304
vn -0.4318 -0.0186 0.9018
vn -0.5171 0.0272 0.8555
vn -0.8555 -0.0272 0.5171
vn -0.9018 0.0186 0.4318
vn 0.9705 -0.0982 0.2203
vn 0.9909 0.1254 -0.0479
vn 0.9665 -0.1090 -0.2324
vn 0.6745 0.0975 -0.7318
vn 0.6737 0.0942 -0.7330
vn 0.2017 -0.1363 -0.9699
vn -0.0444 0.1536 -0.9871
vn -0.3527 -0.1526 -0.9232
vn -0.6098 0.1995 -0.7670
vn -0.8783 -0.2284 -0.4201
vn -0.9695 0.2037 -0.1361
vn -0.9621 -0.1493 0.2283
vn -0.8498 0.1252 0.5120
vn -0.6656 -0.1526 0.7306
vn -0.4384 0.1680 0.8830
vn 0.0206 -0.1648 0.9861
vn 0.2122 0.1627 0.9636
vn 0.6549 -0.1884 0.7318
vn 0.8198 0.1711 0.5465
vn -0.9859 0.0142 0.1666
vn -0.9758 -0.0120 0.2185
vn -0.4730 0.0105 0.8810
vn -0.4810 0.0143 0.8766
vn 0.0943 -0.0236 0.9953
vn 0.3760 0.0478 0.9254
vn 0.6782 -0.0380 0.7339
vn 0.9673 0.0275 0.2521
vn 0.9894 -0.0078 0.1450
vn 0.8846 0.0078 -0.4663
vn 0.8609 -0.0078 -0.5087
vn 0.3410 0.0092 -0.9400
vn 0.2926 -0.0117 -0.9562
vn -0.5977 0.0139 -0.8016
vn -0.6399 -0.0150 -0.7683
vn 0.0000 -1.0000 0.0000
usemtl None
s off
f 1//1 2//1 3//1
f 3//1 2//1 4//1
f 5//2 6//2 7//2
f 7//3 6//3 8//3
f 7//4 8//4 9//4
f 9//5 8//5 10//5
f 9//6 10//6 11//6
f 11//7 10//7 12//7
f 12//8 10//8 13//8
f 14//9 1//9 15//9
f 15//10 1//10 3//10
f 2//11 16//11 4//11
f 4//11 16//11 17//11
f 16//12 2//12 14//12
f 14//12 2//12 1//12
f 6//12 13//12 8//12
f 8//12 13//12 10//12
f 19//13 18//13 20//13
f 19//14 20//14 21//14
f 21//15 20//15 22//15
f 21//16 22//16 23//16
f 23//17 22//17 24//17
f 24//18 22//18 25//18
f 24//19 25//19 26//19
f 26//20 25//20 27//20
f 26//21 27//21 28//21
f 28//22 27//22 29//22
f 28//23 29//23 30//23
f 30//24 29//24 31//24
f 30//25 31//25 32//25
f 32//26 31//26 33//26
f 32//27 33//27 34//27
f 34//28 33//28 35//28
f 34//29 35//29 36//29
f 36//30 35//30 37//30
f 36//31 37//31 19//31
f 19//32 37//32 18//32
f 50//33 28//33 42//33
f 38//12 39//12 40//12
f 41//34 42//34 30//34
f 3//35 21//35 15//35
f 15//36 21//36 23//36
f 40//12 39//12 43//12
f 43//12 44//12 17//12
f 46//37 36//37 19//37
f 17//12 44//12 4//12
f 44//12 48//12 4//12
f 28//38 30//38 42//38
f 30//37 45//37 41//37
f 45//39 30//39 32//39
f 23//40 24//40 49//40
f 49//41 24//41 51//41
f 26//42 50//42 51//42
f 28//33 50//33 26//33
f 47//12 52//12 12//12
f 12//12 52//12 53//12
f 40//12 43//12 17//12
f 46//43 34//43 36//43
f 46//44 19//44 3//44
f 3//45 19//45 21//45
f 23//12 49//12 15//12
f 24//46 26//46 51//46
f 45//47 32//47 46//47
f 46//48 32//48 34//48
f 4//12 48//12 52//12
f 4//12 52//12 3//12
f 3//12 52//12 47//12
f 53//12 54//12 12//12
f 3//12 47//12 46//12
f 46//12 47//12 55//12
f 40//12 7//12 9//12
f 55//12 56//12 46//12
f 57//12 5//12 40//12
f 40//12 5//12 7//12
f 38//12 40//12 9//12
f 38//12 9//12 54//12
f 54//12 9//12 11//12
f 11//12 12//12 54//12
f 46//49 58//49 45//49
f 45//50 58//50 61//50
f 59//51 42//51 60//51
f 60//52 42//52 41//52
f 60//53 41//53 61//53
f 61//54 41//54 45//54
f 42//55 59//55 50//55
f 50//56 59//56 63//56
f 62//57 51//57 63//57
f 63//58 51//58 50//58
f 51//59 62//59 49//59
f 49//60 62//60 64//60
f 49//61 64//61 65//61
f 49//62 65//62 15//62
f 15//63 65//63 14//63
f 66//64 40//64 17//64
f 16//65 14//65 17//65
f 17//66 14//66 65//66
f 17//67 65//67 66//67
f 57//68 40//68 67//68
f 67//68 40//68 66//68
f 5//69 57//69 6//69
f 6//69 57//69 67//69
f 6//69 67//69 13//69
f 13//69 67//69 68//69
f 13//70 68//70 12//70
f 69//71 47//71 68//71
f 68//72 47//72 12//72
f 71//73 55//73 69//73
f 69//74 55//74 47//74
f 58//75 46//75 70//75
f 70//76 46//76 56//76
f 70//77 56//77 71//77
f 71//78 56//78 55//78
f 20//79 18//79 72//79
f 72//80 18//80 73//80
f 73//81 18//81 37//81
f 73//82 37//82 74//82
f 74//83 37//83 35//83
f 74//84 35//84 33//84
f 74//85 33//85 75//85
f 75//86 33//86 31//86
f 75//87 31//87 76//87
f 76//88 31//88 29//88
f 76//89 29//89 77//89
f 77//90 29//90 27//90
f 77//91 27//91 78//91
f 78//92 27//92 25//92
f 78//93 25//93 79//93
f 79//94 25//94 22//94
f 79//95 22//95 80//95
f 80//96 22//96 20//96
f 80//97 20//97 72//97
f 87//98 44//98 81//98
f 81//99 44//99 43//99
f 81//100 43//100 82//100
f 82//101 43//101 39//101
f 82//102 39//102 38//102
f 82//103 38//103 83//103
f 83//104 38//104 54//104
f 83//105 54//105 84//105
f 84//106 54//106 53//106
f 84//107 53//107 85//107
f 85//108 53//108 52//108
f 85//109 52//109 86//109
f 86//110 52//110 48//110
f 86//111 48//111 87//111
f 87//112 48//112 44//112
f 59//113 76//113 77//113
f 59//113 77//113 63//113
f 79//113 64//113 62//113
f 79//113 62//113 78//113
f 58//113 74//113 61//113
f 61//113 74//113 75//113
f 59//113 60//113 76//113
f 73//113 71//113 69//113
f 73//113 69//113 72//113
f 70//113 71//113 73//113
f 61//113 75//113 76//113
f 81//113 82//113 66//113
f 74//113 58//113 73//113
f 73//113 58//113 70//113
f 78//113 62//113 77//113
f 77//113 62//113 63//113
f 64//113 79//113 80//113
f 64//113 80//113 65//113
f 68//113 84//113 85//113
f 68//113 85//113 69//113
f 87//113 81//113 65//113
f 65//113 81//113 66//113
f 68//113 83//113 84//113
f 76//113 60//113 61//113
f 69//113 85//113 86//113
f 66//113 82//113 67//113
f 67//113 82//113 83//113
f 67//113 83//113 68//113
f 72//113 69//113 80//113
f 80//113 69//113 86//113
f 80//113 86//113 87//113
f 80//113 87//113 65//113
