# Blender v2.92.0 OBJ File: ''
# www.blender.org
mtllib HSH-M3X10.mtl
o HSH-M3X10__X_C4_X_DA_X_C1_X_F9_X_BD_X_C7M3X10
v 12.588271 -0.820333 -13.172304
v 12.588271 0.623043 -13.172304
v 12.588271 -1.542021 -14.422304
v 12.588271 1.344730 -14.422304
v 12.588271 -0.820333 -15.672304
v 12.588271 0.623043 -15.672304
v 11.288271 -0.820333 -13.172304
v 11.288271 -1.542021 -14.422304
v 11.288271 0.623043 -13.172304
v 11.288271 1.344730 -14.422304
v 11.288271 0.623043 -15.672304
v 11.288271 -0.820333 -15.672304
v 11.303010 2.365591 -13.774076
v 11.290826 -1.500457 -12.385971
v 11.291520 0.902187 -16.684092
v 11.290057 0.260547 -11.995529
v 11.295940 -1.445851 -16.526218
v 11.290524 2.031147 -15.677504
v 11.302947 1.679852 -12.597429
v 11.290003 -2.428472 -13.594492
v 11.290065 -2.331313 -15.437405
v 11.295902 -0.498573 -16.891500
v 11.575480 2.600203 -13.874350
v 11.572580 2.377282 -13.232422
v 11.577419 1.993179 -12.628592
v 11.569345 1.344744 -12.078644
v 11.574263 0.048339 -11.672680
v 11.573689 0.719140 -11.799370
v 11.577832 -0.920238 -11.784388
v 11.574755 -1.779934 -12.241520
v 11.574624 -2.271056 -12.738903
v 11.563130 -2.682389 -13.457494
v 11.574372 -2.842189 -14.263604
v 11.577364 -2.797064 -14.975790
v 11.571115 -2.571995 -15.616302
v 11.577095 -2.190135 -16.216236
v 11.569201 -1.542105 -16.765862
v 11.576332 -0.251678 -17.172331
v 11.575351 0.718037 -17.060816
v 11.574624 2.073765 -16.105705
v 11.563090 2.485087 -15.387108
v 11.574372 2.644899 -14.581006
v 11.347211 -2.689267 -14.700468
v 11.351827 -0.387420 -11.820173
v 11.347211 2.172332 -13.145058
v 11.345488 2.508126 -14.568792
v 11.370706 -2.693932 -14.036356
v 11.370521 -2.518745 -13.394754
v 11.370096 -2.016140 -12.612699
v 11.370521 -1.265598 -12.066256
v 11.362626 0.487245 -11.864717
v 11.375532 1.277015 -12.176231
v 11.375610 2.376955 -15.345755
v 11.363375 1.938826 -16.066271
v 11.366316 1.021933 -16.807640
v 11.366915 0.123206 -17.041235
v 11.375309 -1.913904 -16.330330
v 11.370096 -2.461563 -15.591954
v 11.402366 -1.247647 -16.818811
v 11.523261 1.587664 -16.589211
v 11.506409 -0.824191 -17.061560
v 14.288268 2.679509 -14.605102
v 14.288273 2.423915 -13.283422
v 14.288267 1.711976 -12.324686
v 14.288269 0.664058 -11.761501
v 14.288273 -0.683738 -11.702124
v 14.288260 -1.871995 -12.298497
v 14.288314 -2.591710 -13.205829
v 14.288272 -2.849480 -14.234615
v 14.288274 -2.751585 -15.210730
v 14.288267 -2.074989 -16.380436
v 14.288277 -0.725331 -17.137075
v 14.288272 0.702169 -17.074642
v 14.288260 1.699144 -16.522394
v 14.288298 2.306067 -15.779062
v 24.282021 1.299106 -14.010745
v 24.260399 1.205806 -15.120658
v 24.254940 0.737793 -15.647080
v 24.289303 -0.244535 -15.853049
v 24.288746 -1.184428 -15.343449
v 24.247818 -1.570182 -14.534596
v 24.256092 -1.515984 -14.007547
v 24.258438 -1.201978 -13.439180
v 24.289303 -0.074616 -12.984342
v 24.288456 0.811666 -13.342149
v 14.288271 -1.412488 -13.645903
v 14.288273 -1.608768 -14.517924
v 14.288271 0.383531 -12.974379
v 14.288271 -0.633111 -12.992853
v 14.288271 1.099173 -13.496846
v 14.288271 1.442871 -14.462000
v 14.288271 0.889997 -15.605703
v 14.288271 -1.308935 -15.351917
v 14.288271 -0.333819 -15.946293
v 24.190044 -0.679315 -13.011103
v 24.189308 0.209543 -12.940179
v 24.190044 0.994287 -13.357331
v 24.189308 1.395225 -14.667313
v 24.189308 -0.023427 -15.934263
v 24.190046 -0.887961 -15.728310
v 24.189308 -1.473529 -15.055843
vn -1.0000 0.0000 0.0000
vn 0.0000 0.8660 -0.5000
vn 0.0000 0.0000 -1.0000
vn 0.0000 -0.8660 -0.5000
vn 0.0000 -0.8660 0.5000
vn 0.0000 0.0000 1.0000
vn 0.0000 0.8660 0.5000
vn -1.0000 0.0016 -0.0028
vn -0.9999 0.0116 0.0045
vn -1.0000 0.0016 -0.0009
vn -0.9999 0.0106 0.0061
vn -1.0000 -0.0010 0.0024
vn -0.9999 0.0112 0.0050
vn -1.0000 -0.0013 -0.0008
vn -1.0000 0.0000 0.0015
vn -1.0000 -0.0023 -0.0073
vn -1.0000 -0.0025 -0.0039
vn -1.0000 0.0000 -0.0063
vn -1.0000 -0.0013 0.0007
vn -1.0000 -0.0016 0.0019
vn -1.0000 -0.0021 -0.0001
vn -1.0000 -0.0027 -0.0070
vn -0.9810 -0.0424 0.1891
vn -0.9590 0.2448 0.1426
vn -0.9858 0.1666 -0.0228
vn -0.9843 -0.1764 -0.0093
vn -0.9408 -0.3375 0.0309
vn -0.8663 -0.4820 0.1314
vn -0.9160 -0.3378 0.2166
vn -0.9595 -0.2231 0.1720
vn -0.8341 -0.3244 0.4462
vn -0.9430 -0.1082 0.3146
vn -0.8974 0.0335 0.4398
vn -0.9465 0.1333 0.2940
vn -0.9494 0.1285 0.2865
vn -0.9435 0.3189 -0.0904
vn -0.8435 0.4652 -0.2685
vn -0.9531 0.2010 -0.2263
vn -0.9164 0.2499 -0.3126
vn -0.8944 0.1119 -0.4330
vn -0.9566 0.0397 -0.2886
vn -0.9470 -0.2467 -0.2057
vn -0.9267 -0.2987 -0.2281
vn -0.9052 -0.4057 -0.1269
vn -0.8844 -0.1680 -0.4355
vn -0.7611 0.4063 -0.5056
vn -0.7054 -0.0888 -0.7032
vn -0.7642 -0.1690 -0.6224
vn -0.7790 -0.3499 -0.5204
vn -0.5777 -0.8161 0.0147
vn -0.4512 -0.8766 0.1675
vn -0.5917 -0.7778 0.2122
vn -0.4743 -0.7407 0.4758
vn -0.6065 -0.6858 0.4023
vn -0.4128 -0.6481 0.6400
vn -0.6187 -0.4622 0.6353
vn -0.3881 -0.4316 0.8143
vn -0.6369 -0.2206 0.7387
vn -0.3959 -0.1067 0.9121
vn -0.6152 0.0477 0.7869
vn -0.4527 0.1651 0.8763
vn -0.5739 0.3086 0.7586
vn -0.5156 0.3463 0.7837
vn -0.5196 0.5710 0.6356
vn -0.5495 0.5444 0.6338
vn -0.6310 0.6015 0.4899
vn -0.4861 0.7356 0.4718
vn -0.5862 0.7620 0.2753
vn -0.5705 0.7767 0.2671
vn -0.6264 0.7724 0.1050
vn -0.5100 0.8584 0.0551
vn -0.5125 0.8432 -0.1622
vn -0.5194 0.8396 -0.1592
vn -0.5197 0.7338 -0.4374
vn -0.5424 0.7253 -0.4239
vn -0.5123 0.6322 -0.5812
vn -0.3807 0.4231 -0.8222
vn -0.6282 0.1953 -0.7531
vn -0.3858 0.1050 -0.9166
vn -0.6219 -0.0749 -0.7795
vn -0.4035 -0.3784 -0.8331
vn -0.5989 -0.4575 -0.6572
vn -0.4181 -0.5905 -0.6903
vn -0.6037 -0.6383 -0.4777
vn -0.4667 -0.7440 -0.4782
vn -0.4878 -0.8251 -0.2852
vn -0.6099 -0.7639 -0.2108
vn -0.4790 -0.8759 -0.0575
vn 0.0224 0.9816 0.1898
vn -0.0101 0.9446 0.3280
vn 0.0164 0.8027 0.5961
vn -0.0044 0.8437 0.5367
vn -0.0184 0.6468 0.7624
vn 0.0158 0.4733 0.8807
vn -0.0045 0.4076 0.9131
vn -0.0099 0.1856 0.9826
vn 0.0227 0.0440 0.9988
vn -0.0201 -0.1146 0.9932
vn 0.0026 -0.4695 0.8829
vn 0.0120 -0.4485 0.8937
vn -0.0094 -0.7115 0.7026
vn 0.0144 -0.7834 0.6214
vn -0.0170 -0.8676 0.4969
vn 0.0098 -0.9700 0.2430
vn -0.0047 -0.9809 0.1944
vn -0.0020 -0.9980 -0.0632
vn 0.0080 -0.9950 -0.0998
vn -0.0129 -0.9434 -0.3314
vn 0.0033 -0.8436 -0.5369
vn 0.0175 -0.8655 -0.5006
vn -0.0187 -0.6468 -0.7624
vn 0.0278 -0.4888 -0.8719
vn -0.0115 -0.3817 -0.9242
vn -0.0200 -0.1876 -0.9820
vn 0.0206 0.0437 -0.9988
vn -0.0044 0.1142 -0.9934
vn -0.0017 0.4766 -0.8791
vn 0.0016 0.4846 -0.8748
vn -0.0113 0.7058 -0.7084
vn 0.0098 0.7746 -0.6324
vn -0.0145 0.8677 -0.4969
vn 0.0190 0.9528 -0.3031
vn -0.0142 0.9808 -0.1943
vn -0.0122 0.9979 0.0631
vn 0.9997 0.0113 -0.0204
vn 0.9987 0.0414 -0.0307
vn 1.0000 0.0011 0.0031
vn 0.9990 -0.0194 0.0413
vn 0.9998 -0.0092 -0.0147
vn 1.0000 -0.0092 0.0010
vn 0.9995 -0.0159 -0.0284
vn 0.9999 -0.0042 -0.0127
vn 1.0000 -0.0000 0.0000
vn 0.9215 -0.1668 0.3508
vn 0.2099 -0.0776 0.9746
vn 0.8280 0.2106 0.5197
vn 0.5916 0.3780 0.7121
vn 0.8180 0.4685 0.3337
vn 0.8828 0.4663 -0.0564
vn 0.8012 0.1495 -0.5794
vn 0.2680 -0.2230 -0.9372
vn 0.8937 -0.2143 -0.3943
vn 0.2822 -0.7236 -0.6298
vn 0.8579 -0.4793 -0.1852
vn 0.0040 -0.9948 0.1022
vn -0.0022 -0.9756 0.2196
vn 0.0085 -0.8753 0.4835
vn -0.0027 -0.6338 0.7735
vn -0.0016 -0.6423 0.7665
vn 0.0015 -0.0795 0.9968
vn -0.0038 -0.0182 0.9998
vn 0.0052 0.4694 0.8830
vn -0.0051 0.5896 0.8077
vn 0.0036 0.9060 0.4232
vn -0.0016 0.9420 0.3355
vn 0.0077 0.9896 0.1438
vn -0.0036 0.9225 -0.3860
vn -0.0073 0.9003 -0.4352
vn 0.0087 0.7473 -0.6645
vn 0.0015 0.3529 -0.9357
vn -0.0072 0.2681 -0.9634
vn 0.0084 -0.2317 -0.9727
vn -0.0103 -0.5204 -0.8538
vn 0.0071 -0.7541 -0.6567
vn -0.0055 -0.9410 -0.3383
vn 0.0035 -0.9832 -0.1827
usemtl None
s off
f 1//1 2//1 3//1
f 3//1 2//1 4//1
f 3//1 4//1 5//1
f 5//1 4//1 6//1
f 1//2 3//2 7//2
f 7//2 3//2 8//2
f 2//3 1//3 9//3
f 9//3 1//3 7//3
f 4//4 2//4 10//4
f 10//4 2//4 9//4
f 6//5 4//5 11//5
f 11//5 4//5 10//5
f 5//6 6//6 12//6
f 12//6 6//6 11//6
f 3//7 5//7 8//7
f 8//7 5//7 12//7
f 18//8 15//8 11//8
f 10//9 13//9 18//9
f 10//10 18//10 11//10
f 9//11 19//11 10//11
f 19//11 13//11 10//11
f 7//12 14//12 16//12
f 16//13 19//13 9//13
f 12//14 21//14 8//14
f 7//15 16//15 9//15
f 12//16 17//16 21//16
f 15//17 22//17 11//17
f 11//18 22//18 12//18
f 8//19 20//19 7//19
f 7//20 20//20 14//20
f 8//21 21//21 20//21
f 12//22 22//22 17//22
f 14//23 44//23 16//23
f 19//24 45//24 13//24
f 13//25 46//25 18//25
f 21//26 43//26 20//26
f 20//27 43//27 47//27
f 20//28 47//28 48//28
f 20//29 48//29 49//29
f 20//30 49//30 14//30
f 14//31 49//31 50//31
f 14//32 50//32 44//32
f 16//33 44//33 51//33
f 16//34 51//34 19//34
f 19//35 51//35 52//35
f 18//36 46//36 53//36
f 18//37 53//37 54//37
f 18//38 54//38 15//38
f 15//39 54//39 55//39
f 15//40 55//40 56//40
f 15//41 56//41 22//41
f 17//42 57//42 21//42
f 21//43 57//43 58//43
f 21//44 58//44 43//44
f 22//45 59//45 17//45
f 54//46 60//46 55//46
f 22//47 56//47 61//47
f 22//48 61//48 59//48
f 17//49 59//49 57//49
f 43//50 33//50 47//50
f 47//51 33//51 32//51
f 47//52 32//52 48//52
f 48//53 32//53 49//53
f 49//54 32//54 31//54
f 49//55 31//55 30//55
f 49//56 30//56 50//56
f 50//57 30//57 29//57
f 50//58 29//58 44//58
f 44//59 29//59 27//59
f 44//60 27//60 51//60
f 51//61 27//61 28//61
f 51//62 28//62 52//62
f 52//63 28//63 26//63
f 52//64 26//64 19//64
f 19//65 26//65 25//65
f 19//66 25//66 45//66
f 45//67 25//67 24//67
f 45//68 24//68 13//68
f 13//69 24//69 23//69
f 13//70 23//70 46//70
f 46//71 23//71 42//71
f 46//72 42//72 53//72
f 53//73 42//73 41//73
f 53//74 41//74 54//74
f 54//75 41//75 40//75
f 54//76 40//76 60//76
f 55//77 60//77 39//77
f 55//78 39//78 56//78
f 56//79 39//79 38//79
f 56//80 38//80 61//80
f 59//81 61//81 37//81
f 59//82 37//82 57//82
f 57//83 37//83 36//83
f 57//84 36//84 58//84
f 58//85 36//85 35//85
f 58//86 35//86 34//86
f 58//87 34//87 43//87
f 43//88 34//88 33//88
f 23//89 63//89 62//89
f 63//90 23//90 24//90
f 25//91 64//91 63//91
f 25//92 63//92 24//92
f 26//93 64//93 25//93
f 64//94 26//94 65//94
f 65//95 26//95 28//95
f 27//96 65//96 28//96
f 65//97 27//97 66//97
f 29//98 66//98 27//98
f 30//99 67//99 29//99
f 29//100 67//100 66//100
f 67//101 30//101 31//101
f 67//102 31//102 68//102
f 68//103 31//103 32//103
f 68//104 32//104 69//104
f 32//105 33//105 69//105
f 69//106 33//106 34//106
f 69//107 34//107 70//107
f 35//108 70//108 34//108
f 36//109 71//109 35//109
f 35//110 71//110 70//110
f 71//111 36//111 37//111
f 37//112 72//112 71//112
f 61//113 72//113 37//113
f 72//114 61//114 38//114
f 72//115 38//115 73//115
f 39//116 73//116 38//116
f 73//117 39//117 60//117
f 73//118 60//118 74//118
f 74//119 60//119 40//119
f 74//120 40//120 75//120
f 41//121 75//121 40//121
f 75//122 41//122 62//122
f 41//123 42//123 62//123
f 62//124 42//124 23//124
f 76//125 78//125 77//125
f 76//126 79//126 78//126
f 76//127 80//127 79//127
f 76//128 81//128 80//128
f 76//129 82//129 81//129
f 76//130 83//130 82//130
f 76//131 84//131 83//131
f 76//132 85//132 84//132
f 89//133 67//133 86//133
f 86//133 67//133 68//133
f 86//133 68//133 87//133
f 88//133 65//133 66//133
f 88//133 66//133 89//133
f 89//133 66//133 67//133
f 91//133 63//133 90//133
f 90//133 63//133 64//133
f 90//133 64//133 88//133
f 88//133 64//133 65//133
f 92//133 75//133 91//133
f 91//133 75//133 62//133
f 91//133 62//133 63//133
f 94//133 73//133 92//133
f 92//133 73//133 74//133
f 92//133 74//133 75//133
f 93//133 71//133 94//133
f 94//133 71//133 72//133
f 94//133 72//133 73//133
f 68//133 69//133 87//133
f 87//133 69//133 70//133
f 87//133 70//133 93//133
f 93//133 70//133 71//133
f 95//134 83//134 84//134
f 95//135 84//135 96//135
f 96//136 84//136 85//136
f 96//137 85//137 97//137
f 97//138 85//138 76//138
f 98//139 76//139 77//139
f 78//140 79//140 99//140
f 99//141 79//141 100//141
f 100//142 79//142 80//142
f 100//143 80//143 101//143
f 101//144 80//144 81//144
f 81//145 82//145 87//145
f 87//146 82//146 86//146
f 86//147 82//147 83//147
f 86//148 83//148 95//148
f 86//149 95//149 89//149
f 89//150 95//150 96//150
f 89//151 96//151 88//151
f 88//152 96//152 97//152
f 88//153 97//153 90//153
f 90//154 97//154 76//154
f 90//155 76//155 91//155
f 91//156 76//156 98//156
f 91//157 98//157 77//157
f 91//158 77//158 92//158
f 92//159 77//159 78//159
f 92//160 78//160 99//160
f 92//161 99//161 94//161
f 94//162 99//162 100//162
f 94//163 100//163 93//163
f 93//164 100//164 101//164
f 93//165 101//165 87//165
f 87//166 101//166 81//166
