# Blender v2.92.0 OBJ File: ''
# www.blender.org
mtllib IBL Frame2TTL Back.mtl
o IBL_Frame2TTL_Back
v 9.379044 -7.397495 -2.106343
v 9.379044 -7.397495 -15.506343
v 9.379044 -12.397495 -2.106343
v 9.379044 -12.397495 -15.506343
v 24.779045 -14.197496 -4.106343
v 38.912865 -14.197496 -4.145836
v 24.779045 -12.397495 -4.106343
v 38.957211 -7.397494 -4.152224
v 24.779045 -7.397495 -4.106343
v 39.699482 -7.397494 -4.714837
v 39.656044 -14.197496 -4.658232
v 39.972561 -7.397494 -5.385665
v 39.972530 -14.197496 -5.360109
v 39.979046 -12.739317 -8.519485
v 39.973278 -14.197496 -12.224319
v 39.979046 -12.564480 -9.695667
v 39.979046 -10.143712 -7.101526
v 39.979046 -9.392294 -7.706816
v 39.979046 -9.044188 -8.606730
v 39.973171 -7.397494 -12.250536
v 39.979046 -9.293826 -9.805328
v 39.979042 -9.972496 -10.408490
v 39.979046 -12.349131 -7.637006
v 39.979046 -11.325067 -6.965986
v 39.979046 -10.697884 -10.659651
v 39.979046 -11.651278 -10.511162
v 39.656044 -7.397494 -12.954455
v 39.699478 -14.197496 -12.897850
v 38.912861 -7.397494 -13.466851
v 38.957207 -14.197496 -13.460464
v 24.779045 -7.397495 -13.506343
v 24.779045 -12.397495 -13.506343
v 24.779045 -14.197496 -13.506343
v 32.379044 -7.397495 -5.906343
v 24.779045 -7.397495 -15.506343
v 24.779045 -7.397495 -2.106343
v 37.579044 -7.397495 -5.476343
v 37.579044 -7.397495 -12.136343
v 34.779045 -7.397495 -5.476343
v 34.779045 -7.397495 -12.136343
v 32.379044 -7.397495 -11.706343
v 26.579044 -7.397495 -5.906343
v 26.579044 -7.397495 -11.706343
v 34.779045 -14.197496 -5.476343
v 37.579044 -14.197496 -5.476343
v 32.379044 -14.197496 -11.706343
v 34.779045 -14.197496 -12.136343
v 32.379044 -14.197496 -5.906343
v 37.579044 -14.197496 -12.136343
v 26.579044 -14.197496 -11.706343
v 26.579044 -14.197496 -5.906343
v 24.779045 -12.397495 -2.106343
v 24.779045 -12.397495 -15.506343
v 34.779049 -12.739317 -8.519485
v 34.779049 -12.564480 -9.695667
v 34.779049 -10.143713 -7.101526
v 34.779049 -9.392294 -7.706816
v 34.779049 -9.044188 -8.606730
v 34.779049 -9.293826 -9.805328
v 34.779045 -9.972496 -10.408490
v 34.779049 -12.349131 -7.637006
v 34.779049 -11.325067 -6.965986
v 34.779049 -10.697884 -10.659651
v 34.779049 -11.651278 -10.511162
v 37.579044 -12.402701 -7.706821
v 37.579044 -9.055675 -8.519483
v 37.579044 -9.445865 -7.637002
v 37.579044 -10.225014 -7.067850
v 37.579044 -10.347606 -10.613925
v 37.579044 -9.230512 -9.695665
v 37.579044 -11.447380 -6.998760
v 37.579044 -12.750803 -8.606732
v 37.579044 -12.501166 -9.805328
v 37.579044 -11.569978 -10.544837
v 32.379044 -9.055674 -8.519483
v 32.379044 -9.445865 -7.637002
v 32.379044 -10.225014 -7.067850
v 32.379044 -12.402701 -7.706821
v 32.379044 -10.347606 -10.613925
v 32.379044 -9.230512 -9.695665
v 32.379044 -11.447380 -6.998760
v 32.379044 -12.750803 -8.606732
v 32.379044 -12.602312 -9.560130
v 32.379044 -11.786817 -10.473329
vn -1.0000 0.0000 0.0000
vn 0.0028 0.0000 1.0000
vn 0.0029 0.0009 1.0000
vn 0.0032 0.0000 1.0000
vn 0.6041 0.0028 0.7969
vn 0.5676 -0.0029 0.8233
vn 0.9262 0.0014 0.3770
vn 0.9116 -0.0024 0.4111
vn 1.0000 -0.0042 0.0001
vn 1.0000 -0.0029 -0.0004
vn 1.0000 0.0013 0.0017
vn 1.0000 0.0022 0.0009
vn 1.0000 0.0038 0.0001
vn 1.0000 0.0024 -0.0005
vn 1.0000 0.0013 -0.0014
vn 1.0000 -0.0023 0.0010
vn 1.0000 -0.0012 0.0019
vn 1.0000 0.0000 0.0041
vn 1.0000 0.0004 0.0032
vn 1.0000 0.0007 -0.0021
vn 1.0000 0.0000 -0.0037
vn 1.0000 -0.0004 -0.0027
vn 1.0000 -0.0013 -0.0014
vn 0.9117 0.0024 -0.4108
vn 0.9264 -0.0014 -0.3766
vn 0.5676 0.0029 -0.8233
vn 0.6041 -0.0028 -0.7969
vn 0.0028 0.0000 -1.0000
vn 0.0031 -0.0009 -1.0000
vn 0.0032 0.0000 -1.0000
vn -0.0000 1.0000 -0.0000
vn 0.0000 -1.0000 0.0000
vn 1.0000 0.0000 0.0000
vn 0.0000 0.0000 1.0000
vn 0.0000 0.0000 -1.0000
vn -0.0297 -0.3270 0.9445
vn 0.0398 -0.6638 0.7469
vn 0.0185 -0.6349 0.7724
vn -0.0165 -0.9789 0.2039
vn 0.0101 -0.9891 0.1470
vn -0.0087 -0.9326 -0.3608
vn 0.0087 -0.9146 -0.4044
vn -0.0087 -0.6273 -0.7787
vn 0.0087 -0.5898 -0.8075
vn -0.0101 -0.1140 -0.9934
vn 0.0165 -0.0564 -0.9983
vn -0.0165 0.5480 -0.8363
vn 0.0101 0.5954 -0.8033
vn -0.0087 0.9146 -0.4044
vn 0.0087 0.9326 -0.3608
vn -0.0101 0.9891 0.1470
vn 0.0165 0.9789 0.2039
vn -0.0165 0.6660 0.7458
vn 0.0101 0.6219 0.7831
vn -0.0087 0.1539 0.9881
vn 0.0272 0.0564 0.9980
vn -0.0069 0.9881 0.1539
vn 0.0258 0.7456 0.6659
vn -0.0258 0.6659 0.7456
vn 0.0331 0.0972 0.9947
vn 0.0069 0.1539 0.9881
usemtl None
s off
f 1//1 2//1 3//1
f 3//1 2//1 4//1
f 5//2 6//2 7//2
f 7//3 6//3 8//3
f 7//4 8//4 9//4
f 10//5 8//5 11//5
f 11//6 8//6 6//6
f 12//7 10//7 13//7
f 13//8 10//8 11//8
f 14//9 13//9 15//9
f 14//10 15//10 16//10
f 17//11 18//11 12//11
f 12//12 18//12 19//12
f 12//13 19//13 20//13
f 20//14 19//14 21//14
f 20//15 21//15 22//15
f 14//16 23//16 13//16
f 13//17 23//17 24//17
f 13//18 24//18 12//18
f 12//19 24//19 17//19
f 22//20 25//20 20//20
f 20//21 25//21 15//21
f 15//22 25//22 26//22
f 26//23 16//23 15//23
f 27//24 20//24 28//24
f 28//25 20//25 15//25
f 29//26 27//26 30//26
f 30//27 27//27 28//27
f 31//28 29//28 32//28
f 32//29 29//29 30//29
f 32//30 30//30 33//30
f 9//31 8//31 34//31
f 31//31 35//31 2//31
f 1//31 36//31 2//31
f 2//31 36//31 9//31
f 2//31 9//31 31//31
f 37//31 12//31 38//31
f 38//31 12//31 20//31
f 39//31 40//31 41//31
f 8//31 10//31 37//31
f 34//31 42//31 9//31
f 9//31 42//31 43//31
f 9//31 43//31 31//31
f 31//31 43//31 41//31
f 31//31 41//31 29//31
f 29//31 41//31 40//31
f 29//31 40//31 38//31
f 41//31 34//31 39//31
f 39//31 34//31 8//31
f 39//31 8//31 37//31
f 37//31 10//31 12//31
f 20//31 27//31 38//31
f 38//31 27//31 29//31
f 44//32 45//32 6//32
f 46//32 47//32 48//32
f 48//32 47//32 44//32
f 48//32 44//32 5//32
f 5//32 44//32 6//32
f 49//32 15//32 45//32
f 45//32 15//32 13//32
f 49//32 47//32 30//32
f 30//32 47//32 46//32
f 30//32 46//32 33//32
f 33//32 46//32 50//32
f 33//32 50//32 5//32
f 5//32 50//32 51//32
f 5//32 51//32 48//32
f 49//32 30//32 28//32
f 49//32 28//32 15//32
f 45//32 13//32 11//32
f 11//32 6//32 45//32
f 32//1 33//1 7//1
f 7//1 33//1 5//1
f 7//32 52//32 3//32
f 7//32 3//32 32//32
f 32//32 3//32 4//32
f 32//32 4//32 53//32
f 36//33 52//33 9//33
f 9//33 52//33 7//33
f 36//34 1//34 52//34
f 52//34 1//34 3//34
f 53//33 35//33 32//33
f 32//33 35//33 31//33
f 53//35 4//35 35//35
f 35//35 4//35 2//35
f 54//33 44//33 47//33
f 54//33 47//33 55//33
f 56//33 57//33 39//33
f 39//33 57//33 58//33
f 39//33 58//33 40//33
f 40//33 58//33 59//33
f 40//33 59//33 60//33
f 54//33 61//33 44//33
f 44//33 61//33 62//33
f 44//33 62//33 39//33
f 39//33 62//33 56//33
f 60//33 63//33 40//33
f 40//33 63//33 47//33
f 47//33 63//33 64//33
f 64//33 55//33 47//33
f 39//35 37//35 44//35
f 44//35 37//35 45//35
f 38//1 66//1 37//1
f 66//1 67//1 37//1
f 37//1 67//1 68//1
f 65//1 45//1 71//1
f 38//1 69//1 70//1
f 37//1 68//1 71//1
f 37//1 71//1 45//1
f 65//1 72//1 45//1
f 45//1 72//1 49//1
f 49//1 72//1 73//1
f 38//1 70//1 66//1
f 49//1 73//1 74//1
f 49//1 74//1 69//1
f 49//1 69//1 38//1
f 38//34 40//34 49//34
f 49//34 40//34 47//34
f 25//36 22//36 69//36
f 22//37 21//37 69//37
f 69//38 21//38 70//38
f 21//39 19//39 70//39
f 70//40 19//40 66//40
f 19//41 18//41 66//41
f 66//42 18//42 67//42
f 18//43 17//43 67//43
f 67//44 17//44 68//44
f 17//45 24//45 68//45
f 68//46 24//46 71//46
f 24//47 23//47 71//47
f 71//48 23//48 65//48
f 23//49 14//49 65//49
f 65//50 14//50 72//50
f 14//51 16//51 72//51
f 72//52 16//52 73//52
f 16//53 26//53 73//53
f 73//54 26//54 74//54
f 26//55 25//55 74//55
f 74//56 25//56 69//56
f 42//35 34//35 51//35
f 51//35 34//35 48//35
f 41//1 75//1 34//1
f 75//1 76//1 34//1
f 34//1 76//1 77//1
f 81//1 78//1 48//1
f 41//1 79//1 80//1
f 34//1 77//1 81//1
f 34//1 81//1 48//1
f 48//1 78//1 82//1
f 48//1 82//1 46//1
f 46//1 82//1 83//1
f 41//1 80//1 75//1
f 46//1 83//1 84//1
f 46//1 84//1 79//1
f 46//1 79//1 41//1
f 41//34 43//34 46//34
f 46//34 43//34 50//34
f 43//33 42//33 50//33
f 50//33 42//33 51//33
f 81//46 77//46 62//46
f 62//45 77//45 56//45
f 78//48 81//48 61//48
f 61//47 81//47 62//47
f 82//50 78//50 54//50
f 54//49 78//49 61//49
f 83//57 82//57 55//57
f 55//51 82//51 54//51
f 84//58 83//58 55//58
f 64//59 84//59 55//59
f 79//60 84//60 63//60
f 63//61 84//61 64//61
f 60//36 79//36 63//36
f 80//38 79//38 59//38
f 59//37 79//37 60//37
f 75//40 80//40 58//40
f 58//39 80//39 59//39
f 76//42 75//42 57//42
f 57//41 75//41 58//41
f 77//44 76//44 56//44
f 56//43 76//43 57//43
