# Blender v2.92.0 OBJ File: ''
# www.blender.org
mtllib iPadScreen.mtl
o iPadScreen
v 2.944521 -0.178000 -4.343119
v 2.944521 -0.178000 -169.343124
v 2.944521 -5.178000 -4.343119
v 2.944521 -5.178000 -169.343124
v 208.944519 -0.178000 -4.343119
v 208.944519 -5.178000 -4.343119
v 208.944519 -0.178000 -169.343124
v 208.944519 -5.178000 -169.343124
vn -1.0000 0.0000 0.0000
vn 0.0000 0.0000 1.0000
vn 1.0000 0.0000 0.0000
vn 0.0000 0.0000 -1.0000
vn 0.0000 1.0000 0.0000
vn 0.0000 -1.0000 0.0000
usemtl None
s off
f 1//1 2//1 3//1
f 3//1 2//1 4//1
f 5//2 1//2 6//2
f 6//2 1//2 3//2
f 7//3 5//3 8//3
f 8//3 5//3 6//3
f 2//4 7//4 4//4
f 4//4 7//4 8//4
f 5//5 7//5 1//5
f 1//5 7//5 2//5
f 8//6 6//6 4//6
f 4//6 6//6 3//6
