# Blender v2.92.0 OBJ File: ''
# www.blender.org
mtllib MikeEnclosureBot.mtl
o MikeEnclosure_Bottom
v -37.761742 -23.417562 11.522429
v -37.761742 -24.708836 10.450984
v 76.738251 -23.538620 11.479575
v 76.738251 -24.771046 10.320174
v -13.761742 -16.209913 -17.921038
v -16.761745 -16.060829 -16.826319
v -16.761745 -11.898298 -17.450228
v -13.761742 -11.970798 -17.656446
v -13.761742 -16.955826 -15.070520
v -16.761745 -20.407587 -21.786699
v -16.761745 -16.887720 -21.951887
v -16.761745 -13.758409 -20.332018
v -16.761745 -23.688713 -19.574110
v -16.761745 -17.178288 -19.050863
v -16.761745 -17.927040 -14.668230
v -13.761742 -11.840006 -9.038717
v 74.404984 -12.213098 9.561283
v 75.341431 -13.136820 11.561283
v 72.760330 -11.801416 11.561283
v -33.783806 -11.801416 9.561283
v -33.926651 -11.829907 11.561283
v -36.364929 -13.136826 9.561283
v -36.348701 -13.153050 11.561283
v -37.671841 -15.575105 11.561283
v -37.737614 -15.840506 9.561283
v 14.488255 -14.640006 11.561283
v 14.488255 -17.540007 11.561283
v 24.488255 -17.540007 11.561283
v -13.761742 -14.984354 -21.402311
v -13.761742 -19.792290 -21.951887
v -13.761742 -22.819445 -20.407988
v -13.761742 -17.831554 -19.227251
v -16.761745 -19.743570 -18.867868
v -13.761742 -19.724310 -18.842764
v -13.761742 -23.586002 -8.977947
v -13.761742 -24.709213 -17.656446
v 76.559067 -14.744597 -9.038719
v 76.709473 -15.757822 9.561283
v 76.659454 -15.660769 11.561283
v 24.488255 -14.640006 11.561283
v -16.761745 -20.576508 -16.341806
v -13.761742 -20.619183 -16.826319
v -16.761745 -24.840006 -17.038717
v -16.761745 -23.417561 -8.999865
v -13.761742 -19.527996 -15.131655
v -37.761742 -23.348469 -8.993256
v -37.761742 -24.728514 -7.984303
v -16.761745 -24.759935 -7.854834
v -21.761744 -17.540007 -9.038717
v -31.761744 -17.540007 -9.038717
v 72.698502 -11.882609 -7.038719
v 73.221436 -11.983342 -9.038719
v -34.565331 -12.051540 -7.038719
v -33.485863 -11.872564 -9.038719
v -36.148705 -12.977921 -9.038719
v 75.341431 -13.236818 -7.038719
v -16.761745 -11.840006 -9.038717
v -36.745335 -13.783295 -7.038719
v -21.761744 -14.640006 -9.038717
v -21.761744 -17.540007 -7.038717
v -31.761744 -14.640006 -7.038717
v -21.761744 -14.640006 -7.038717
v -31.761744 -14.640006 -9.038717
v 14.488255 -14.640006 -7.038717
v 14.488255 -17.540007 -7.038717
v 24.488255 -14.640006 9.561284
v 14.488255 -14.640006 9.561284
v 14.488255 -17.540007 9.561284
v 62.738255 -21.740005 9.561284
v -36.261742 -21.740005 9.561284
v -37.761745 -21.740005 9.561284
v -37.261742 -21.740005 4.561283
v 24.488255 -17.540007 -7.038717
v 24.488255 -14.640006 -9.038717
v 24.488255 -17.540007 -9.038717
v 24.488255 -14.640006 -7.038717
v 14.488255 -14.640006 -9.038717
v 70.738251 -14.640006 -9.038717
v 60.738255 -14.640006 -9.038717
v 14.488255 -17.540007 -9.038717
v 60.738255 -17.540007 -9.038717
v 60.738255 -14.640006 -7.038717
v 60.738255 -17.540007 -7.038717
v 70.738251 -17.540007 -7.038717
v 70.738251 -17.540007 -9.038717
v 76.738251 -23.340006 -5.238716
v 76.738251 -24.381979 -8.653267
v 76.738251 -21.740005 -5.238716
v 62.738255 -23.340006 9.561284
v 62.738255 -21.740005 7.761283
v 62.738255 -23.340006 7.761283
v 76.738251 -23.340006 7.761283
v 62.738255 -23.340006 -5.238716
v 24.488255 -17.540007 9.561284
v 76.738251 -21.740005 7.761283
v 76.738251 -21.740005 9.561284
v -37.735321 -15.932972 -9.038719
v -31.761744 -17.540007 -7.038717
v -37.690697 -15.731483 -7.038719
v -37.761745 -21.740005 -7.038717
v 62.738255 -21.740005 -7.038717
v -36.261742 -23.340006 -7.038717
v 62.738255 -23.340006 -7.038717
v -36.261742 -23.340006 -2.038715
v -36.261742 -23.340006 4.561284
v -36.261742 -23.340006 9.561284
v -37.761745 -23.340006 4.561284
v -37.761745 -23.340006 -2.038715
v 76.676849 -15.817943 -7.038719
v 70.738251 -14.640006 -7.038717
v -36.261742 -21.740005 -7.038717
v 76.738251 -21.740005 -7.038717
v 62.738255 -21.740005 -5.238716
v -13.761742 -24.794186 -7.668676
v -36.761742 -21.740005 -2.038717
vn -1.0000 0.0024 -0.0029
vn 1.0000 0.0029 -0.0031
vn -0.0004 -0.6386 0.7696
vn 0.0005 -0.6852 0.7284
vn 0.1186 -0.8873 0.4457
vn -1.0000 0.0000 0.0000
vn -0.1391 -0.9580 -0.2507
vn 0.0943 0.7757 -0.6240
vn -0.0170 0.8401 -0.5422
vn 0.1553 -0.7472 -0.6462
vn 0.0231 0.9996 -0.0152
vn 0.4510 0.8717 0.1914
vn 0.0037 0.9801 -0.1987
vn -0.0003 0.9999 0.0142
vn -0.4594 0.8880 -0.0202
vn -0.4794 0.8775 0.0110
vn -0.0000 0.0000 1.0000
vn 0.0000 -0.0066 1.0000
vn -0.0002 -0.0050 1.0000
vn -0.9994 0.0113 0.0314
vn 0.1093 0.1129 -0.9876
vn -0.1279 0.4559 -0.8808
vn 1.0000 0.0000 0.0000
vn -0.0904 -0.6247 0.7756
vn -0.0453 -0.0468 -0.9979
vn 0.0441 -0.4539 -0.8900
vn -0.0683 -0.5578 -0.8272
vn -0.0093 0.9140 0.4056
vn 0.0640 0.9478 0.3125
vn 0.8302 0.5397 -0.1394
vn -0.8912 0.4525 -0.0307
vn -0.8775 0.4794 0.0110
vn 0.8864 0.4629 -0.0003
vn 0.0004 -0.0107 0.9999
vn 0.0004 -0.0104 0.9999
vn 0.9997 0.0097 0.0245
vn -0.1403 0.0235 -0.9898
vn 0.1526 0.5278 -0.8356
vn -0.0753 0.8384 -0.5398
vn -0.0022 -0.5902 -0.8073
vn 0.0037 -0.6490 -0.7608
vn 0.0000 -0.0066 -1.0000
vn -0.0057 -0.0211 -0.9998
vn -0.0003 -0.0061 -1.0000
vn -1.0000 0.0036 0.0049
vn 0.4548 0.8875 0.0742
vn -0.0016 0.9961 0.0883
vn 0.0016 0.9988 -0.0499
vn -0.0019 0.9942 0.1078
vn 0.0000 0.9998 0.0213
vn -0.6168 0.7765 0.1287
vn 0.0000 1.0000 -0.0069
vn 0.0038 -0.0034 -1.0000
vn 0.0000 0.0000 -1.0000
vn 0.0000 -1.0000 0.0000
vn 0.0000 1.0000 0.0000
vn 0.6259 0.7566 -0.1893
vn 0.0739 0.0710 0.9947
vn -0.0095 0.1991 0.9799
vn -0.0010 -0.0052 -1.0000
vn 0.0000 -0.0101 -0.9999
vn 0.0031 -0.0535 -0.9986
vn 0.0190 -0.0396 -0.9990
vn 0.0812 -0.8216 -0.5643
vn -0.9946 -0.0298 -0.0995
vn -0.9999 0.0041 0.0137
vn -0.3805 0.9165 -0.1233
vn -0.8958 0.4347 -0.0922
vn -0.8807 0.4729 -0.0280
vn 0.8361 0.5225 -0.1672
vn -0.9522 0.2976 0.0692
vn 0.8719 0.4511 0.1907
vn -0.0454 -0.9096 -0.4130
vn -0.0040 -0.7349 -0.6782
vn 0.9998 0.0048 0.0192
vn -0.0005 -1.0000 0.0011
vn -0.9997 0.0056 0.0217
vn -0.9992 0.0118 -0.0373
vn 0.9950 0.0000 0.0995
vn -0.8361 0.5225 0.1672
vn 0.9545 0.2983 0.0000
vn 0.9986 0.0166 -0.0499
vn 0.9998 0.0104 -0.0170
vn 0.0418 -0.9991 -0.0085
vn -0.0120 -0.9999 0.0087
vn 0.0043 -0.9998 -0.0205
vn -0.0167 -0.9962 0.0850
vn -0.0015 -1.0000 0.0073
usemtl None
s off
f 1//1 25//1 2//1
f 38//2 3//2 4//2
f 2//3 3//3 1//3
f 3//4 2//4 4//4
f 5//5 6//5 14//5
f 6//6 7//6 14//6
f 6//7 5//7 9//7
f 10//6 12//6 11//6
f 13//6 12//6 10//6
f 13//6 14//6 12//6
f 12//8 8//8 29//8
f 14//6 7//6 12//6
f 8//9 12//9 7//9
f 15//6 7//6 6//6
f 9//10 15//10 6//10
f 8//11 7//11 16//11
f 18//12 17//12 19//12
f 20//13 19//13 17//13
f 19//14 20//14 21//14
f 22//15 21//15 20//15
f 21//16 22//16 23//16
f 23//17 19//17 21//17
f 23//17 18//17 19//17
f 24//17 27//17 26//17
f 27//18 1//18 28//18
f 1//19 27//19 24//19
f 25//20 1//20 24//20
f 11//21 29//21 30//21
f 29//22 11//22 12//22
f 29//23 31//23 30//23
f 29//23 32//23 31//23
f 5//24 14//24 32//24
f 8//23 32//23 29//23
f 8//23 5//23 32//23
f 8//23 9//23 5//23
f 16//23 9//23 8//23
f 30//25 10//25 11//25
f 10//26 30//26 31//26
f 31//27 13//27 10//27
f 13//6 33//6 14//6
f 33//28 42//28 34//28
f 13//6 41//6 33//6
f 42//29 33//29 41//29
f 18//30 38//30 17//30
f 23//17 26//17 18//17
f 24//31 22//31 25//31
f 24//17 26//17 23//17
f 22//32 24//32 23//32
f 38//33 18//33 39//33
f 40//17 18//17 26//17
f 40//17 39//17 18//17
f 28//17 39//17 40//17
f 1//34 39//34 28//34
f 39//35 1//35 3//35
f 3//36 38//36 39//36
f 15//37 9//37 45//37
f 45//38 41//38 15//38
f 41//39 45//39 42//39
f 46//40 44//40 47//40
f 48//41 47//41 44//41
f 49//42 44//42 50//42
f 44//43 97//43 50//43
f 97//44 44//44 46//44
f 47//45 97//45 46//45
f 56//46 52//46 51//46
f 53//17 56//17 51//17
f 51//47 54//47 53//47
f 16//48 51//48 52//48
f 54//49 51//49 57//49
f 57//50 51//50 16//50
f 58//17 56//17 53//17
f 53//51 55//51 58//51
f 44//6 7//6 15//6
f 57//52 16//52 7//52
f 7//6 44//6 57//6
f 44//53 49//53 57//53
f 57//54 49//54 59//54
f 60//6 59//6 49//6
f 61//17 56//17 58//17
f 59//6 60//6 62//6
f 62//17 56//17 61//17
f 61//55 59//55 62//55
f 59//55 61//55 63//55
f 64//17 60//17 65//17
f 17//54 22//54 20//54
f 66//6 28//6 40//6
f 66//54 22//54 17//54
f 67//54 25//54 22//54
f 26//55 66//55 40//55
f 67//54 22//54 66//54
f 66//55 26//55 67//55
f 28//56 68//56 27//56
f 27//23 67//23 26//23
f 67//23 27//23 68//23
f 68//54 25//54 67//54
f 69//54 25//54 68//54
f 70//54 25//54 69//54
f 25//54 70//54 71//54
f 70//56 72//56 71//56
f 60//17 64//17 62//17
f 73//6 74//6 75//6
f 64//17 56//17 62//17
f 74//6 73//6 76//6
f 76//17 56//17 64//17
f 64//55 74//55 76//55
f 74//55 64//55 77//55
f 52//57 56//57 37//57
f 37//54 16//54 52//54
f 78//54 16//54 37//54
f 79//54 16//54 78//54
f 74//54 16//54 79//54
f 77//54 16//54 74//54
f 80//54 16//54 77//54
f 64//23 80//23 77//23
f 80//56 73//56 75//56
f 80//23 64//23 65//23
f 73//56 80//56 65//56
f 74//54 81//54 75//54
f 73//17 82//17 76//17
f 81//54 74//54 79//54
f 82//17 73//17 83//17
f 82//23 81//23 79//23
f 81//56 84//56 85//56
f 81//23 82//23 83//23
f 84//56 81//56 83//56
f 33//58 32//58 14//58
f 32//59 33//59 34//59
f 34//23 31//23 32//23
f 34//23 36//23 31//23
f 42//23 36//23 34//23
f 45//23 36//23 42//23
f 16//23 45//23 9//23
f 16//23 36//23 45//23
f 16//60 80//60 35//60
f 35//23 36//23 16//23
f 80//61 75//61 35//61
f 35//61 75//61 81//61
f 35//61 81//61 85//61
f 85//62 87//62 35//62
f 87//63 85//63 37//63
f 36//64 13//64 31//64
f 86//23 87//23 88//23
f 89//6 90//6 91//6
f 92//23 87//23 86//23
f 90//54 92//54 91//54
f 93//56 92//56 86//56
f 92//56 93//56 91//56
f 38//54 66//54 17//54
f 68//56 28//56 94//56
f 28//6 66//6 94//6
f 94//54 69//54 68//54
f 38//54 94//54 66//54
f 38//54 69//54 94//54
f 92//54 90//54 95//54
f 69//54 38//54 96//54
f 90//56 96//56 95//56
f 90//6 89//6 69//6
f 96//56 90//56 69//56
f 2//65 71//65 72//65
f 71//66 2//66 25//66
f 55//67 53//67 54//67
f 57//54 55//54 54//54
f 57//54 59//54 55//54
f 63//54 55//54 59//54
f 63//54 97//54 55//54
f 50//54 97//54 63//54
f 61//23 50//23 63//23
f 50//56 60//56 49//56
f 50//23 61//23 98//23
f 60//56 50//56 98//56
f 43//6 15//6 41//6
f 43//6 44//6 15//6
f 43//6 48//6 44//6
f 55//68 99//68 58//68
f 99//69 55//69 97//69
f 99//17 61//17 58//17
f 73//17 100//17 83//17
f 83//17 100//17 84//17
f 73//17 65//17 100//17
f 100//17 65//17 60//17
f 100//17 60//17 98//17
f 99//17 98//17 61//17
f 100//17 98//17 99//17
f 101//17 102//17 103//17
f 89//56 91//56 102//56
f 102//56 91//56 93//56
f 102//56 93//56 103//56
f 89//54 70//54 69//54
f 104//56 89//56 102//56
f 70//70 105//70 72//70
f 70//54 89//54 106//54
f 105//56 89//56 104//56
f 105//23 70//23 106//23
f 89//56 105//56 106//56
f 2//71 72//71 107//71
f 2//6 107//6 47//6
f 72//54 105//54 107//54
f 108//56 105//56 104//56
f 47//6 107//6 108//6
f 105//56 108//56 107//56
f 37//54 85//54 78//54
f 37//72 56//72 109//72
f 84//17 109//17 110//17
f 84//6 78//6 85//6
f 82//17 56//17 76//17
f 110//17 109//17 56//17
f 78//6 84//6 110//6
f 110//17 56//17 82//17
f 82//55 78//55 110//55
f 78//55 82//55 79//55
f 101//17 84//17 111//17
f 101//17 109//17 84//17
f 88//23 87//23 112//23
f 109//17 101//17 112//17
f 101//56 88//56 112//56
f 93//6 101//6 103//6
f 88//56 101//56 113//56
f 101//6 93//6 113//6
f 93//17 88//17 113//17
f 88//17 93//17 86//17
f 43//6 41//6 13//6
f 36//73 43//73 13//73
f 87//74 114//74 35//74
f 92//23 4//23 87//23
f 95//23 96//23 92//23
f 96//23 4//23 92//23
f 38//75 4//75 96//75
f 47//76 4//76 2//76
f 47//77 99//77 97//77
f 99//78 47//78 100//78
f 111//17 84//17 100//17
f 102//17 101//17 111//17
f 100//56 115//56 111//56
f 108//6 100//6 47//6
f 115//79 102//79 111//79
f 100//80 108//80 115//80
f 102//81 115//81 104//81
f 115//17 108//17 104//17
f 114//23 36//23 35//23
f 109//82 87//82 37//82
f 112//83 87//83 109//83
f 114//84 43//84 36//84
f 43//85 114//85 48//85
f 4//86 114//86 87//86
f 4//87 48//87 114//87
f 4//88 47//88 48//88
