# Blender v2.92.0 OBJ File: ''
# www.blender.org
mtllib ScreenHolderBottom.mtl
o ScreenMount_Bottom
v 44.080936 7.667027 -29.233013
v 47.080936 7.158488 -28.570271
v 47.080936 7.667027 -29.233013
v 44.080936 7.158488 -28.570271
v 47.080936 6.838806 -27.798491
v 44.080936 6.838806 -27.798491
v 47.080936 6.729769 -26.970270
v 44.080936 6.729769 -26.970270
v 47.080936 6.838806 -26.142048
v 44.080936 6.838806 -26.142048
v 47.080936 7.158488 -25.370270
v 44.080936 7.158488 -25.370270
v 47.080936 7.667027 -24.707529
v 44.080936 7.667027 -24.707529
v 47.080936 8.329769 -24.198990
v 44.080936 8.329769 -24.198990
v 47.080936 25.729769 -21.470270
v 27.080936 22.729769 -21.470270
v 27.080936 25.729769 -21.470270
v 47.080936 22.729769 -21.470270
v 27.080936 22.729769 -24.070271
v 27.080936 18.929770 -25.570271
v 47.080936 25.729769 -24.070271
v 27.080936 25.729769 -25.570271
v 27.080936 25.729769 -24.070271
v 47.080936 22.729769 -24.070271
v 47.080936 9.929770 -23.770269
v 44.080936 9.101547 -23.879307
v 44.080936 9.929770 -23.770269
v 47.080936 9.101547 -23.879307
v 47.080936 9.101547 -30.061234
v 47.080936 4.929769 -31.970270
v 47.080936 9.929770 -30.170269
v 47.080936 8.329769 -29.741550
v 47.080936 4.929769 -19.470270
v 47.080936 22.929770 -31.970270
v 47.080936 10.757990 -30.061234
v 47.080936 11.529769 -29.741550
v 47.080936 12.192511 -29.233013
v 47.080936 12.701050 -28.570271
v 27.080936 22.929770 -31.970270
v 47.080936 22.929770 -28.370270
v 47.080936 18.929770 -28.370270
v 47.080936 13.129768 -26.970270
v 47.080936 13.020731 -27.798491
v 27.080936 22.929770 -28.370270
v 47.080936 13.020731 -26.142048
v 27.080936 18.929770 -28.370270
v 47.080936 25.729769 -25.570271
v 47.080936 18.929770 -25.570271
v 27.080936 15.429770 -31.970270
v 27.080936 15.429770 -19.470270
v 44.080936 15.429770 -31.970270
v 44.080936 15.429770 -19.470270
v 47.080936 4.929769 -31.970270
v 44.080936 4.929769 -19.470270
v 44.080936 4.929769 -31.970270
v 44.080936 4.929769 -31.970270
v 47.080936 10.757990 -23.879307
v 44.080936 10.757990 -23.879307
v 44.080936 9.929770 -30.170269
v 44.080936 9.101547 -30.061234
v 44.080936 8.329769 -29.741550
v 44.080936 4.929769 -19.470270
v 47.080936 12.701050 -25.370270
v 47.080936 12.192511 -24.707529
v 44.080936 11.529769 -24.198990
v 44.080936 12.192511 -24.707529
v 47.080936 11.529769 -24.198990
v 47.080936 25.729769 -19.470270
v 27.080936 25.729769 -19.470270
v 47.080936 4.929769 -19.470270
v 44.080936 10.757990 -30.061234
v 44.080936 11.529769 -29.741550
v 44.080936 12.192511 -29.233013
v 44.080936 12.701050 -28.570271
v 44.080936 13.020731 -27.798491
v 44.080936 13.129768 -26.970270
v 44.080936 13.020731 -26.142048
v 44.080936 12.701050 -25.370270
vn 0.0000 0.7934 0.6088
vn 0.0000 0.9239 0.3827
vn 0.0000 0.9914 0.1305
vn 0.0000 0.9914 -0.1305
vn 0.0000 0.9239 -0.3827
vn 0.0000 0.7934 -0.6088
vn 0.0000 0.6088 -0.7934
vn 0.0000 0.0000 -1.0000
vn 0.0000 1.0000 0.0000
vn -1.0000 0.0000 0.0000
vn 0.0000 0.0000 1.0000
vn 1.0000 0.0000 0.0000
vn 0.0000 0.1305 -0.9914
vn 0.0000 0.3827 -0.9239
vn 0.0000 -1.0000 0.0000
vn 0.0000 -0.1305 -0.9914
vn 0.0000 0.1305 0.9914
vn 0.0000 0.3827 0.9239
vn 0.0000 0.6088 0.7934
vn 0.0000 -0.6088 -0.7934
vn 0.0000 -0.3827 -0.9239
vn 0.0000 -0.1305 0.9914
vn 0.0000 -0.3827 0.9239
vn 0.0000 -0.6088 0.7934
vn 0.0000 -0.7934 0.6088
vn 0.0000 -0.9239 0.3827
vn 0.0000 -0.9914 0.1305
vn 0.0000 -0.9914 -0.1305
vn 0.0000 -0.9239 -0.3827
vn 0.0000 -0.7934 -0.6088
usemtl None
s off
f 1//1 2//1 3//1
f 2//1 1//1 4//1
f 4//2 5//2 2//2
f 5//2 4//2 6//2
f 6//3 7//3 5//3
f 7//3 6//3 8//3
f 8//4 9//4 7//4
f 9//4 8//4 10//4
f 10//5 11//5 9//5
f 11//5 10//5 12//5
f 12//6 13//6 11//6
f 13//6 12//6 14//6
f 15//7 14//7 16//7
f 14//7 15//7 13//7
f 17//8 18//8 19//8
f 18//8 17//8 20//8
f 20//9 21//9 18//9
f 22//10 18//10 21//10
f 23//9 24//9 25//9
f 21//10 24//10 22//10
f 21//11 23//11 25//11
f 24//10 21//10 25//10
f 23//11 21//11 26//11
f 21//9 20//9 26//9
f 27//12 26//12 20//12
f 27//13 28//13 29//13
f 20//12 30//12 27//12
f 28//13 27//13 30//13
f 31//12 32//12 33//12
f 34//12 32//12 31//12
f 3//12 32//12 34//12
f 2//12 32//12 3//12
f 5//12 32//12 2//12
f 7//12 32//12 5//12
f 9//12 32//12 7//12
f 9//12 35//12 32//12
f 11//12 35//12 9//12
f 13//12 35//12 11//12
f 15//12 35//12 13//12
f 30//14 16//14 28//14
f 30//12 35//12 15//12
f 16//14 30//14 15//14
f 36//12 37//12 33//12
f 36//12 38//12 37//12
f 36//12 39//12 38//12
f 36//12 40//12 39//12
f 41//9 42//9 36//9
f 43//12 44//12 45//12
f 42//12 40//12 36//12
f 43//12 45//12 40//12
f 42//9 41//9 46//9
f 43//12 47//12 44//12
f 43//12 40//12 42//12
f 48//11 42//11 46//11
f 49//8 22//8 24//8
f 50//12 47//12 43//12
f 42//11 48//11 43//11
f 51//10 48//10 46//10
f 22//8 49//8 50//8
f 48//9 50//9 43//9
f 51//10 22//10 48//10
f 50//9 48//9 22//9
f 52//15 53//15 54//15
f 51//10 46//10 41//10
f 53//15 52//15 51//15
f 36//8 51//8 41//8
f 36//8 53//8 51//8
f 55//15 56//15 57//15
f 36//8 58//8 53//8
f 36//12 33//12 32//12
f 58//8 36//8 32//8
f 59//16 29//16 60//16
f 26//12 27//12 59//12
f 29//16 59//16 27//16
f 61//17 31//17 33//17
f 62//18 34//18 31//18
f 31//17 61//17 62//17
f 58//10 61//10 53//10
f 63//19 3//19 34//19
f 34//18 62//18 63//18
f 58//10 62//10 61//10
f 3//19 63//19 1//19
f 58//10 63//10 62//10
f 28//10 64//10 29//10
f 58//10 1//10 63//10
f 16//10 64//10 28//10
f 58//10 4//10 1//10
f 14//10 64//10 16//10
f 58//10 6//10 4//10
f 12//10 64//10 14//10
f 58//10 8//10 6//10
f 10//10 64//10 12//10
f 58//10 10//10 8//10
f 64//10 10//10 58//10
f 49//12 65//12 50//12
f 49//12 66//12 65//12
f 66//20 67//20 68//20
f 49//12 69//12 66//12
f 67//20 66//20 69//20
f 24//9 23//9 49//9
f 23//12 69//12 49//12
f 26//12 69//12 23//12
f 69//21 60//21 67//21
f 26//12 59//12 69//12
f 60//21 69//21 59//21
f 52//10 22//10 51//10
f 52//10 18//10 22//10
f 52//10 19//10 18//10
f 19//9 70//9 17//9
f 70//9 19//9 71//9
f 19//10 52//10 71//10
f 17//12 70//12 20//12
f 52//11 70//11 71//11
f 70//12 30//12 20//12
f 54//11 70//11 52//11
f 35//12 30//12 70//12
f 64//11 70//11 54//11
f 56//15 55//15 72//15
f 70//11 64//11 35//11
f 33//22 73//22 61//22
f 73//22 33//22 37//22
f 73//10 53//10 61//10
f 37//23 74//23 73//23
f 74//23 37//23 38//23
f 74//10 53//10 73//10
f 38//24 75//24 74//24
f 75//24 38//24 39//24
f 75//10 53//10 74//10
f 39//25 76//25 75//25
f 76//25 39//25 40//25
f 76//10 53//10 75//10
f 40//26 77//26 76//26
f 77//26 40//26 45//26
f 77//10 53//10 76//10
f 45//27 78//27 77//27
f 78//27 45//27 44//27
f 78//10 53//10 77//10
f 44//28 79//28 78//28
f 47//12 50//12 65//12
f 79//10 53//10 78//10
f 79//28 44//28 47//28
f 80//29 47//29 65//29
f 79//10 54//10 53//10
f 47//29 80//29 79//29
f 66//30 80//30 65//30
f 80//10 54//10 79//10
f 80//30 66//30 68//30
f 68//10 54//10 80//10
f 64//10 60//10 29//10
f 67//10 54//10 68//10
f 64//10 67//10 60//10
f 54//10 67//10 64//10
